<svg width="24" height="24" viewBox="0 0 24 24" fill="none" xmlns="http://www.w3.org/2000/svg">
<path d="M10.1963 8.13605L5.00084 13.2867C4.67239 13.6152 4.26153 13.7872 3.76826 13.8027C3.27498 13.8182 2.84979 13.6462 2.49267 13.2867C2.16422 12.9583 2 12.5403 2 12.0327C2 11.5251 2.16422 11.107 2.49267 10.7786L10.7338 2.53746C11.0921 2.17915 11.5101 2 11.9879 2C12.4656 2 12.8836 2.17915 13.242 2.53746L21.4831 10.7786C21.8115 11.107 21.9835 11.5179 21.999 12.0112C22.0146 12.5044 21.8426 12.9296 21.4831 13.2867C21.1546 13.6152 20.7366 13.7794 20.229 13.7794C19.7214 13.7794 19.3034 13.6152 18.9749 13.2867L13.7794 8.13605V20.9904C13.7794 21.498 13.6074 21.9238 13.2635 22.2678C12.9195 22.6117 12.4943 22.7831 11.9879 22.7819C11.4803 22.7819 11.0545 22.61 10.7105 22.266C10.3665 21.922 10.1951 21.4968 10.1963 20.9904V8.13605Z" fill="#383838"/>
</svg>
