<svg width="35" height="35" viewBox="0 0 35 35" fill="none" xmlns="http://www.w3.org/2000/svg">
<path d="M2.04167 35C1.45833 35 0.972222 34.8056 0.583333 34.4167C0.194444 34.0278 0 33.5417 0 32.9583V25.0833C0 24.6296 0.145833 24.2323 0.4375 23.8914C0.729166 23.5518 1.10185 23.3333 1.55556 23.2361L8.26389 21.875C8.71759 21.8102 9.17972 21.8504 9.65028 21.9956C10.1195 22.142 10.5 22.3611 10.7917 22.6528L15.3611 27.2222C17.8241 25.7315 20.0764 23.9653 22.1181 21.9236C24.1597 19.8819 25.8611 17.6944 27.2222 15.3611L22.5556 10.5972C22.2639 10.3056 22.0772 9.97306 21.9956 9.59972C21.9152 9.22769 21.9074 8.81482 21.9722 8.36111L23.2361 1.55556C23.3009 1.10185 23.5116 0.729166 23.8681 0.4375C24.2245 0.145833 24.6296 0 25.0833 0H32.9583C33.5417 0 34.0278 0.194444 34.4167 0.583333C34.8056 0.972222 35 1.45833 35 2.04167C35 6.22222 34.068 10.2971 32.2039 14.2664C30.3411 18.2369 27.8781 21.7531 24.815 24.815C21.7531 27.8781 18.2376 30.3411 14.2683 32.2039C10.2978 34.068 6.22222 35 2.04167 35Z" fill="#EEEEEE"/>
</svg>
