<svg width="70" height="70" viewBox="0 0 70 70" fill="none" xmlns="http://www.w3.org/2000/svg">
<path d="M21.7875 62.7083C12.25 58.1583 5.425 48.8833 4.375 37.9167H0C1.45833 55.8833 16.5083 70 34.8542 70L36.7792 69.9125L25.6667 58.8L21.7875 62.7083ZM24.3833 43.6333C23.8292 43.6333 23.3333 43.5458 22.8667 43.4C22.431 43.2553 22.0327 43.0163 21.7 42.7C21.3792 42.4083 21.1167 42.0583 20.9417 41.6208C20.7667 41.2125 20.6792 40.7458 20.6792 40.25H16.8875C16.8875 41.3 17.0917 42.2917 17.5 43.0208C17.9083 43.75 18.4625 44.4792 19.1333 45.0333C19.8333 45.5583 20.6208 45.9667 21.525 46.2292C22.4 46.5208 23.3333 46.6667 24.325 46.6667C25.4042 46.6667 26.425 46.5208 27.3292 46.2292C28.2625 45.9375 29.0792 45.5 29.75 44.9458C30.4208 44.3917 30.975 43.75 31.3542 42.8458C31.7333 42 31.9375 41.0667 31.9375 40.0167C31.9375 39.4625 31.8792 38.9083 31.7333 38.3833C31.5875 37.9167 31.3833 37.3625 31.0625 36.8958C30.7708 36.4583 30.3625 36.0208 29.8958 35.6417C29.4 35.2625 28.8167 35 28.1167 34.7375C29.1736 34.272 30.0746 33.5128 30.7125 32.55C31.0042 32.0833 31.2083 31.675 31.3542 31.2083C31.5 30.7417 31.5583 30.275 31.5583 29.8083C31.5583 28.7583 31.3833 27.825 31.0333 27.0083C30.625 26.25 30.1875 25.5208 29.5458 24.9958C28.9625 24.4417 28.175 24.0333 27.3 23.7417C26.3958 23.4792 25.4042 23.3333 24.325 23.3333C23.3333 23.3333 22.3125 23.4792 21.4083 23.8C20.5333 24.1208 19.7458 24.5583 19.1042 25.1125C18.4917 25.6667 17.9958 26.25 17.6167 27.0667C17.2667 27.825 17.0917 28.6417 17.0917 29.5458H20.8833C20.8833 29.05 20.9708 28.6125 21.1458 28.2333C21.3106 27.8518 21.5599 27.5127 21.875 27.2417C22.1958 26.9792 22.5458 26.7458 22.9833 26.6C23.4208 26.4542 23.8583 26.3667 24.3833 26.3667C25.55 26.3667 26.425 26.6583 26.9792 27.2708C27.5333 27.8542 27.825 28.7 27.825 29.7792C27.825 30.3042 27.7083 30.7708 27.5917 31.2083C27.4466 31.6254 27.1953 31.9973 26.8625 32.2875C26.5417 32.5792 26.1333 32.8125 25.6667 32.9875C25.2 33.1625 24.6167 33.25 23.975 33.25H21.7292V36.2542H23.975C24.6167 36.2542 25.2 36.3125 25.725 36.4583C26.25 36.6042 26.6875 36.8375 27.0375 37.1292C27.3875 37.45 27.7083 37.8292 27.8833 38.2958C28.0875 38.7625 28.175 39.375 28.175 39.9583C28.175 41.1542 27.825 42.0583 27.1542 42.6708C26.4833 43.3417 25.55 43.6333 24.3833 43.6333ZM49.3208 26.3667C48.3875 25.4042 47.2792 24.6458 45.9958 24.1208C44.7417 23.5958 43.3125 23.3333 41.7375 23.3333H34.8542V46.6667H41.5625C43.1667 46.6667 44.6542 46.4042 45.9667 45.8792C47.2792 45.3542 48.4167 44.625 49.35 43.6625C50.2833 42.7 51.0417 41.5333 51.5083 40.1917C52.0042 38.8208 52.2667 37.3042 52.2667 35.6125V34.4458C52.2667 32.7542 52.0042 31.2375 51.5083 29.8667C51.0417 28.4958 50.2542 27.3292 49.3208 26.3667ZM48.125 35.5833C48.125 36.8083 48.0375 37.9167 47.775 38.8792C47.4833 39.8417 47.075 40.6875 46.5208 41.3583C45.9667 42.0292 45.2083 42.5542 44.45 42.9042C43.6042 43.2542 42.6417 43.4292 41.5625 43.4292H38.9083V26.6H41.7375C43.8375 26.6 45.4417 27.2708 46.5208 28.6125C47.6292 29.9542 48.125 31.8792 48.125 34.4167M34.8542 0L32.9292 0.0875L44.0417 11.2L47.9208 7.29167C57.4583 11.8417 64.2833 21.0875 65.3042 32.0833H69.6792C68.2208 14.1167 53.2 0 34.8542 0Z" fill="white"/>
</svg>
