<svg width="68" height="25" viewBox="0 0 68 25" fill="none" xmlns="http://www.w3.org/2000/svg">
<path d="M0.941175 25V0.902656H20.0517C20.9665 0.902656 21.7921 1.12578 22.5284 1.57203C23.287 2.01827 23.8894 2.62071 24.3357 3.37933C24.8042 4.11563 25.0385 4.94119 25.0385 5.856V20.0467C25.0385 20.9392 24.8042 21.7647 24.3357 22.5233C23.8894 23.2819 23.287 23.8844 22.5284 24.3306C21.7921 24.7769 20.9665 25 20.0517 25H0.941175ZM6.09533 19.7789H19.784V6.12375H6.09533V19.7789ZM37.0867 25C36.1719 25 35.3351 24.7769 34.5765 24.3306C33.8402 23.8844 33.2489 23.2931 32.8027 22.5568C32.3564 21.7982 32.1333 20.9615 32.1333 20.0467V5.856C32.1333 4.94119 32.3564 4.11563 32.8027 3.37933C33.2489 2.62071 33.8402 2.01827 34.5765 1.57203C35.3351 1.12578 36.1719 0.902656 37.0867 0.902656H56.1637V6.12375H38.4254C38.0684 6.12375 37.7895 6.213 37.5887 6.39149C37.4102 6.56999 37.3209 6.8489 37.3209 7.22821V18.6744C37.3209 19.0314 37.4102 19.3103 37.5887 19.5112C37.7895 19.6897 38.0684 19.7789 38.4254 19.7789H56.1637V25H37.0867ZM62.1635 25V0.902656H67.2842V25H62.1635Z" fill="white"/>
</svg>
