<svg width="70" height="70" viewBox="0 0 70 70" fill="none" xmlns="http://www.w3.org/2000/svg">
<g clip-path="url(#clip0_3_1330)">
<path d="M17.8842 70.0001L9.47363 25.7249L20.0005 27.5L21.3473 39.3901C18.181 43.7629 20.3579 47.7714 21.8421 49.229L23.821 70.0001H17.8842Z" stroke="white" stroke-width="2"/>
<path d="M22.8315 27.9113L23.821 37.2036C27.0005 35 30.7057 34.1062 32.7263 33.924V29.0045L22.8315 27.9113Z" stroke="white" stroke-width="2"/>
<path d="M45.0947 27.9113L35.2 29.0045V33.924C40.5005 34.5 42.5005 36 44.6 37.2036L45.0947 27.9113Z" stroke="white" stroke-width="2"/>
<path d="M58.4527 25.7249L48.0005 27.5L47.0737 39.3901C49.8442 43.7629 47.5684 47.7714 46.0842 49.229L44.1053 70.0001H50.0421L58.4527 25.7249Z" stroke="white" stroke-width="2"/>
<path d="M26.2947 70.0001L24.8105 51.4154C27.7789 53.0553 30.7473 53.6019 32.7263 53.6019V70.0001H26.2947Z" stroke="white" stroke-width="2"/>
<path d="M35.2 70.0001V53.6019C37.5747 53.568 41.4667 52.1301 43.1158 51.4154L41.6316 70.0001H35.2Z" stroke="white" stroke-width="2"/>
<path d="M45.0839 43.7629C45.0839 44.1679 44.8961 44.7548 44.4082 45.4538C43.9299 46.1389 43.2097 46.8628 42.2754 47.5248C40.4078 48.8481 37.7629 49.8688 34.705 49.8688C31.5476 49.8688 28.4958 49.208 26.2709 48.066C24.0188 46.9101 22.8418 45.4006 22.8418 43.7629C22.8418 42.3831 23.9133 40.8714 26.0629 39.6434C28.1677 38.441 31.0853 37.657 34.2102 37.657C37.3108 37.657 40.0935 38.5272 42.075 39.7696C44.1078 41.0443 45.0839 42.5565 45.0839 43.7629Z" stroke="white" stroke-width="2"/>
<path d="M11.4522 15.0958C7.89012 14.7225 8.97854 19.2959 9.96802 21.6292C16.3007 23.8692 31.4066 24.1182 38.168 23.9627C38.6628 21.6293 39.1575 20.696 40.6417 17.896C41.8291 15.6559 45.0943 16.0293 46.5786 16.496C48.1617 12.7626 51.8558 14.007 53.5049 15.0959L52.5154 16.496C52.1196 16.1226 50.7014 16.3404 50.0417 16.496C48.8544 16.1226 47.8979 18.2071 47.568 19.296C47.4031 19.1404 46.5786 18.8293 44.5996 18.8293C42.6207 18.8293 41.1364 22.2516 40.6417 23.9627L57.9575 21.6293C58.7821 20.8515 60.3323 19.016 59.9365 17.896C59.5407 16.776 56.1435 17.1182 54.4944 17.4293C55.4838 16.3404 57.3638 13.8826 56.968 12.7626C56.5723 11.6426 51.8558 11.6737 49.547 11.8292C49.547 10.4292 49.0522 7.25588 47.0733 5.76253C45.0943 4.26919 41.3014 6.38476 39.6522 7.62921C39.6522 4.26919 38.3329 3.11806 37.6733 2.96251C35.2985 2.21584 33.0557 3.58474 32.2312 4.36252C31.7364 3.74022 30.1533 2.40229 27.7785 2.02896C25.4038 1.65562 24.1505 4.98454 23.8206 6.69566C23.4908 6.22899 22.2375 5.29565 19.8627 5.29565C16.8943 5.29565 16.8943 6.69566 16.3996 8.56235C16.0038 10.0557 16.8943 12.6068 17.389 13.6957C21.7427 15.1891 20.8522 18.6735 19.8627 20.2291L17.8838 18.3624C18.6754 16.4957 13.9259 15.4069 11.4522 15.0958Z" stroke="white" stroke-width="2"/>
<path d="M51.5259 9.4959L51.0312 7.16254C54.1975 5.6692 55.3189 8.407 55.4838 9.96257C54.2965 9.21589 52.3505 9.34034 51.5259 9.4959Z" stroke="white" stroke-width="2"/>
<path d="M13.9259 9.4959C13.5301 10.2427 14.0908 12.296 14.4206 13.2293L11.4522 12.7626C8.97858 9.4959 14.4206 8.56235 13.9259 9.4959Z" stroke="white" stroke-width="2"/>
</g>
<defs>
<clipPath id="clip0_3_1330">
<rect width="70" height="70" fill="white"/>
</clipPath>
</defs>
</svg>
