<svg width="70" height="70" viewBox="0 0 70 70" fill="none" xmlns="http://www.w3.org/2000/svg">
<path d="M14.4665 63C13.6401 63 13.3 62.3 13.3 62.3C12.7419 61.7419 12.3869 60.9097 12.3869 60.0833V56.7C9.95633 56.7 8.00139 56.316 6.3 54.6146C4.59861 52.9132 3.5 51.4306 3.5 49V32.9C3.5 30.4694 3.65049 29.3368 5.35188 27.6354C7.05327 25.934 9.11924 25.0833 11.5498 25.0833V19.25C11.5498 16.8194 11.365 13.9514 13.0664 12.25C14.7677 10.5486 17.8692 10.5 20.2998 10.5H49.4665C51.897 10.5 54.765 10.5486 56.4664 12.25C58.1677 13.9514 58.2165 16.8194 58.2165 19.25V25.0833C60.647 25.0833 62.713 25.934 64.4144 27.6354C66.1158 29.3368 66.2663 31.1694 66.2663 33.6V48.4167C66.2663 50.8472 66.1158 52.9132 64.4144 54.6146C62.713 56.316 60.5306 56.7 58.1 56.7V60.2C58.1 61.0264 58.1 61.6 57.4 62.3C57.0601 62.6399 56.6113 63 56 63C55.3887 63 54.8555 62.5555 54.6 62.3C53.9 61.6 53.9 61.0264 53.9 60.2V56.7H16.8V60.0833C16.8 60.9097 16.4244 61.7419 15.8664 62.3C15.3064 62.86 15.2929 63 14.4665 63ZM11.5498 52.85H58.2165C59.0429 52.85 60.9149 52.9514 62.0663 51.8C62.7663 51.1 62.7663 49.2431 62.7663 48.4167V33.8333C62.7663 33.0069 62.7663 31.5 62.7663 30.8C62.2998 28 58.7998 28 58.7998 28C58.7998 28 55.2998 28.7 55.2998 30.8C55.2998 32.9 55.2998 33.0069 55.2998 33.8333V45.5H14.4665V33.6C14.4665 32.7736 14.4664 30.8 14.4664 30.1C13.8805 27.6354 10.8603 27.6354 10.8603 27.6354C10.8603 27.6354 7.6998 27.3 6.76635 30.1C6.76635 31.3282 6.76635 33.0069 6.76635 33.8333V48.4167C6.76635 49.7 7.60635 51.2419 8.16635 51.8C8.72441 52.36 10.7234 52.85 11.5498 52.85ZM18.6664 41.65H51.5663V35C51.5663 33.6875 51.4265 30.1194 51.9612 29.05C52.4959 27.9806 53.6663 26.6 54.3663 26.25V19.25C54.3663 18.4236 54.2263 15.61 53.6663 15.05C53.1083 14.4919 50.2929 14.35 49.4665 14.35H20.0664C19.24 14.35 17.1264 14.4919 16.5664 15.05C16.0083 15.61 15.8664 20.5236 15.8664 21.35V26.25C16.7414 27.0764 17.6855 27.9806 18.2202 29.05C18.7549 30.1194 18.6664 33.3375 18.6664 34.65V41.65Z" fill="white"/>
</svg>
