<svg width="63" height="72" viewBox="0 0 63 72" fill="none" xmlns="http://www.w3.org/2000/svg">
<path d="M15.7241 1H5.2069C2.4023 1.00016 1 1.28283 1 5.24242C1 9.20202 1 15.8484 1 18.6766C1 20.7978 1.70115 22.919 5.2069 22.919H38.1609" stroke="white" stroke-width="2" stroke-linecap="round"/>
<path d="M43.069 22.9192L57.7931 22.9192C60.5977 22.919 62 22.6364 62 18.6768C62 14.7172 62 8.07081 62 5.24258C62 3.12136 61.2989 1.00015 57.7931 1.00015L20.6322 1.00015" stroke="white" stroke-width="2" stroke-linecap="round"/>
<path d="M19.2295 32.1112C19.2295 30.6971 20.6038 25.0405 26.241 25.0405C31.8502 25.0405 33.2525 30.6971 33.2525 32.1112" stroke="white" stroke-width="2" stroke-linecap="round"/>
<path d="M10.8153 11.606C9.80723 11.606 8.47818 11.606 8.01074 11.606M10.8153 11.606C11.8235 11.606 13.6199 12.5282 13.6199 14.4343C13.6199 16.3404 12.9188 16.5555 10.8153 16.5555H8.01074V11.606M10.8153 11.606C11.8235 11.606 13.6199 11.606 13.6199 9.48478C13.6199 7.36356 12.2176 6.65649 10.8153 6.65649C10.2544 6.65649 8.94561 6.65649 8.01074 6.65649V11.606M50.0797 6.65649V11.606M50.0797 16.5555V11.606M50.0797 11.606L55.6889 6.65649M50.0797 11.606L55.6889 16.5555M24.1372 6.65649C22.0337 6.65649 19.2291 7.64639 19.2291 11.606C19.2291 15.5656 22.5012 16.5555 24.1372 16.5555C26.2406 16.5555 29.0452 15.5656 29.0452 11.606C29.0452 7.64639 26.2406 6.65649 24.1372 6.65649ZM39.5625 6.65649C37.9265 6.65649 34.6544 7.64639 34.6544 11.606C34.6544 15.5656 37.9265 16.5555 39.5625 16.5555C41.1985 16.5555 44.4705 15.5656 44.4705 11.606C44.4705 7.64639 41.1985 6.65649 39.5625 6.65649Z" stroke="white" stroke-linecap="round"/>
<path d="M23.4369 54.7375V49.7881M29.0461 51.2022C29.0461 49.3111 29.0461 46.6159 29.0461 43.993M29.0461 43.993C29.0461 40.0779 29.0461 36.3241 29.0461 35.6466C29.0461 34.5153 27.9243 32.8184 26.2415 32.8184C24.5588 32.8184 23.4369 34.2325 23.4369 35.6466V49.7881M29.0461 43.993C29.0461 42.4578 29.607 40.5961 31.8507 40.5961C34.6553 40.5961 34.6553 43.2859 34.6553 43.993C34.6553 44.2579 34.6553 45.9147 34.6553 46.9598M34.6553 51.2022C34.6553 49.5523 34.6553 48.7035 34.6553 46.9598M34.6553 46.9598C34.6553 46.0644 34.6656 43.1829 37.4599 43.4244C39.6434 43.6132 39.5634 45.5456 39.6434 46.9598L39.5872 49.9356M39.5634 51.2022L39.5872 49.9356M39.5872 49.9356C39.5793 48.9437 40.1243 46.9598 42.3679 46.9598C44.6116 46.9598 45.1725 48.8453 45.1725 49.7881V58.98C45.4063 62.9867 43.0691 71.0002 31.8507 71.0002C20.6323 71.0002 17.594 62.9867 17.8278 58.98L17.8277 49.7881C17.8278 47.6668 18.9496 46.9598 20.6323 46.9598C22.7358 46.9598 23.437 48.3739 23.4369 49.7881" stroke="white" stroke-width="2" stroke-linecap="round"/>
</svg>
