<svg width="70" height="70" viewBox="0 0 70 70" fill="none" xmlns="http://www.w3.org/2000/svg">
<path d="M51.0412 51.0417C58.3328 61.2501 69.8507 53.7105 67.0828 43.7501C62.9266 28.7905 60.6662 20.4634 59.4907 16.0651C59.1546 14.8056 58.4126 13.6922 57.3797 12.897C56.3468 12.1019 55.0805 11.6695 53.777 11.6667H16.222C13.5445 11.6667 11.2112 13.4897 10.5607 16.0855C8.10782 25.8505 5.92907 34.4226 3.33615 43.7501C0.571153 53.7105 12.0862 61.2501 19.3778 51.0417" stroke="white" stroke-width="3" stroke-linecap="round" stroke-linejoin="round"/>
<path d="M46.6657 11.6667V17.5001C46.6657 19.0472 46.0511 20.5309 44.9571 21.6249C43.8632 22.7188 42.3795 23.3334 40.8324 23.3334H29.1657C27.6186 23.3334 26.1349 22.7188 25.0409 21.6249C23.9469 20.5309 23.3324 19.0472 23.3324 17.5001V11.6667M23.3324 46.6667C24.8795 46.6667 26.3632 46.0522 27.4571 44.9582C28.5511 43.8642 29.1657 42.3805 29.1657 40.8334C29.1657 39.2863 28.5511 37.8026 27.4571 36.7086C26.3632 35.6147 24.8795 35.0001 23.3324 35.0001C21.7853 35.0001 20.3015 35.6147 19.2076 36.7086C18.1136 37.8026 17.499 39.2863 17.499 40.8334C17.499 42.3805 18.1136 43.8642 19.2076 44.9582C20.3015 46.0522 21.7853 46.6667 23.3324 46.6667ZM46.6657 46.6667C48.2128 46.6667 49.6965 46.0522 50.7905 44.9582C51.8844 43.8642 52.499 42.3805 52.499 40.8334C52.499 39.2863 51.8844 37.8026 50.7905 36.7086C49.6965 35.6147 48.2128 35.0001 46.6657 35.0001C45.1186 35.0001 43.6349 35.6147 42.5409 36.7086C41.4469 37.8026 40.8324 39.2863 40.8324 40.8334C40.8324 42.3805 41.4469 43.8642 42.5409 44.9582C43.6349 46.0522 45.1186 46.6667 46.6657 46.6667Z" stroke="white" stroke-width="3" stroke-linecap="round" stroke-linejoin="round"/>
</svg>
